<svg width="20" height="20" viewBox="0 0 20 20" fill="none" xmlns="http://www.w3.org/2000/svg">
<g clip-path="url(#clip0_706_8755)">
<path d="M9.915 19.33C14.9767 19.33 19.08 15.2267 19.08 10.165C19.08 5.10331 14.9767 1 9.915 1C4.85331 1 0.75 5.10331 0.75 10.165C0.75 15.2267 4.85331 19.33 9.915 19.33Z" stroke="white" stroke-width="1.5" stroke-linecap="round" stroke-linejoin="round"/>
<path d="M7.57495 7.50047C7.77087 6.94353 8.15758 6.4739 8.66658 6.17475C9.17558 5.87561 9.77403 5.76626 10.3559 5.86607C10.9378 5.96588 11.4656 6.26841 11.8458 6.72008C12.2261 7.17175 12.4342 7.74341 12.4333 8.33381C12.4333 10.0005 9.93328 10.8338 9.93328 10.8338" stroke="white" stroke-width="1.5" stroke-linecap="round" stroke-linejoin="round"/>
<path d="M10 14.167H10.0083" stroke="white" stroke-width="1.5" stroke-linecap="round" stroke-linejoin="round"/>
</g>
<defs>
<clipPath id="clip0_706_8755">
<rect width="20" height="20" fill="white"/>
</clipPath>
</defs>
</svg>
