<svg width="32" height="32" viewBox="0 0 32 32" fill="none" xmlns="http://www.w3.org/2000/svg">
<path d="M0 16C0 7.16344 7.16344 0 16 0V0C24.8366 0 32 7.16344 32 16V30C32 31.1046 31.1046 32 30 32H2C0.895431 32 0 31.1046 0 30V16Z" fill="url(#paint0_linear_706_8767)"/>
<path d="M22 24V13.3333C22 13.3333 20.6667 9 16 9C11.3333 9 10 13.3333 10 13.3333V24" stroke="white" stroke-width="1.66667" stroke-linecap="square" stroke-linejoin="round"/>
<path d="M25 23.846V17.1793C25 17.1793 24.3994 15.1773 22.5 14.2764" stroke="white" stroke-width="1.66667" stroke-linecap="square" stroke-linejoin="round"/>
<path d="M7 23.8464V17.1797C7 17.1797 7.65897 14.9832 9.7793 14.1562" stroke="white" stroke-width="1.66667" stroke-linecap="square" stroke-linejoin="round"/>
<path d="M16 13.5V18.0833" stroke="white" stroke-width="1.66667" stroke-linecap="square" stroke-linejoin="round"/>
<path d="M17.6666 15.167H14.3333" stroke="white" stroke-width="1.66667" stroke-linecap="square" stroke-linejoin="round"/>
<path d="M13 24H19" stroke="white" stroke-width="1.66667" stroke-linecap="square" stroke-linejoin="round"/>
<path d="M14 21H18" stroke="white" stroke-width="1.66667" stroke-linecap="square" stroke-linejoin="round"/>
<defs>
<linearGradient id="paint0_linear_706_8767" x1="16" y1="0" x2="16" y2="32" gradientUnits="userSpaceOnUse">
<stop stop-color="#28A745"/>
<stop offset="1" stop-color="#007548"/>
</linearGradient>
</defs>
</svg>
